<svg width="25" height="25" viewBox="0 0 25 25" fill="none" xmlns="http://www.w3.org/2000/svg">
<mask id="mask0_4_561" style="mask-type:alpha" maskUnits="userSpaceOnUse" x="0" y="0" width="25" height="25">
<rect x="0.525024" y="0.5" width="24" height="24" fill="#D9D9D9"/>
</mask>
<g mask="url(#mask0_4_561)">
<path d="M12.525 13.5C11.9609 13.5 11.4866 13.3077 11.1019 12.9231C10.7173 12.5385 10.525 12.0641 10.525 11.5V5.5C10.525 4.9359 10.7173 4.46154 11.1019 4.07692C11.4866 3.69231 11.9609 3.5 12.525 3.5C13.0891 3.5 13.5635 3.69231 13.9481 4.07692C14.3327 4.46154 14.525 4.9359 14.525 5.5V11.5C14.525 12.0641 14.3327 12.5385 13.9481 12.9231C13.5635 13.3077 13.0891 13.5 12.525 13.5ZM12.025 21V17.4827C10.4584 17.3391 9.15002 16.6987 8.10002 15.5615C7.05002 14.4244 6.52502 13.0705 6.52502 11.5H7.52502C7.52502 12.8833 8.01252 14.0625 8.98752 15.0375C9.96252 16.0125 11.1417 16.5 12.525 16.5C13.9084 16.5 15.0875 16.0125 16.0625 15.0375C17.0375 14.0625 17.525 12.8833 17.525 11.5H18.525C18.525 13.0705 18 14.4244 16.95 15.5615C15.9 16.6987 14.5917 17.3391 13.025 17.4827V21H12.025ZM12.525 12.5C12.8084 12.5 13.0459 12.4042 13.2375 12.2125C13.4292 12.0208 13.525 11.7833 13.525 11.5V5.5C13.525 5.21667 13.4292 4.97917 13.2375 4.7875C13.0459 4.59583 12.8084 4.5 12.525 4.5C12.2417 4.5 12.0042 4.59583 11.8125 4.7875C11.6209 4.97917 11.525 5.21667 11.525 5.5V11.5C11.525 11.7833 11.6209 12.0208 11.8125 12.2125C12.0042 12.4042 12.2417 12.5 12.525 12.5Z" fill="#EBF5FF"/>
</g>
</svg>
