<svg width="18" height="19" viewBox="0 0 18 19" fill="none" xmlns="http://www.w3.org/2000/svg">
<path d="M0 6.99998C0 5.67433 0.2766 4.41824 0.8298 3.23171C1.383 2.04517 2.15191 1.01536 3.13652 0.142281L3.85 0.849981C2.95 1.63331 2.25 2.55415 1.75 3.61248C1.25 4.67081 1 5.79998 1 6.99998H0ZM17 6.99998C17 5.79998 16.75 4.67081 16.25 3.61248C15.75 2.55415 15.05 1.63331 14.15 0.849981L14.8635 0.142281C15.8481 1.01536 16.617 2.04517 17.1702 3.23171C17.7234 4.41824 18 5.67433 18 6.99998H17ZM1.5 15.7308V14.7308H3.5V7.23076C3.5 5.89871 3.92308 4.72723 4.76923 3.71633C5.61538 2.70543 6.6923 2.07177 8 1.81536V1.11536C8 0.826889 8.09455 0.588106 8.28365 0.399006C8.47275 0.209906 8.71153 0.115356 9 0.115356C9.28847 0.115356 9.52725 0.209906 9.71635 0.399006C9.90545 0.588106 10 0.826889 10 1.11536V1.81536C11.3077 2.07177 12.3846 2.70543 13.2308 3.71633C14.0769 4.72723 14.5 5.89871 14.5 7.23076V14.7308H16.5V15.7308H1.5ZM9 18.6154C8.56538 18.6154 8.1875 18.4612 7.86635 18.1529C7.5452 17.8445 7.38463 17.4602 7.38463 17H10.6154C10.6154 17.4602 10.4612 17.8445 10.1529 18.1529C9.84454 18.4612 9.46025 18.6154 9 18.6154ZM4.5 14.7308H13.5V7.23076C13.5 5.97691 13.0635 4.91344 12.1904 4.04036C11.3173 3.16729 10.2538 2.73076 9 2.73076C7.74615 2.73076 6.68269 3.16729 5.80963 4.04036C4.93654 4.91344 4.5 5.97691 4.5 7.23076V14.7308Z" fill="#EBF5FF"/>
</svg>
