<svg width="29" height="23" viewBox="0 0 29 23" fill="none" xmlns="http://www.w3.org/2000/svg">
<path d="M13.475 20.8789C12.7571 20.7699 12.0692 20.5785 11.4115 20.3048C10.7539 20.0311 10.1391 19.6789 9.56732 19.2481L10.275 18.5289C10.7584 18.8789 11.2709 19.1622 11.8125 19.3789C12.3542 19.5955 12.9084 19.7455 13.475 19.8289V20.8789ZM15.475 20.8789V19.8673C17.2084 19.5917 18.6417 18.7997 19.775 17.4914C20.9084 16.183 21.475 14.6622 21.475 12.9289C21.475 10.9789 20.7959 9.32469 19.4375 7.96635C18.0792 6.60802 16.425 5.92885 14.475 5.92885H13.6981L15.7981 8.02885L15.0904 8.73656L11.7827 5.42885L15.0904 2.12115L15.7981 2.84038L13.7096 4.92885H14.475C15.584 4.92885 16.6234 5.1375 17.5933 5.5548C18.5632 5.97212 19.4106 6.54328 20.1356 7.26828C20.8606 7.99328 21.4318 8.84071 21.8491 9.81058C22.2664 10.7804 22.475 11.8199 22.475 12.9289C22.475 14.9558 21.8096 16.7221 20.4789 18.2279C19.1481 19.7337 17.4802 20.6173 15.475 20.8789ZM8.1558 17.8366C7.7122 17.2519 7.35033 16.6308 7.0702 15.9731C6.79008 15.3154 6.60836 14.634 6.52502 13.9289H7.53657C7.63272 14.5083 7.79233 15.0657 8.0154 15.601C8.23848 16.1362 8.52502 16.6455 8.87502 17.1289L8.1558 17.8366ZM6.52502 11.9289C6.62502 11.1814 6.81412 10.4769 7.09232 9.81538C7.37052 9.15385 7.72502 8.55577 8.1558 8.02115L8.87502 8.72885C8.52502 9.21219 8.23848 9.72148 8.0154 10.2567C7.79233 10.792 7.63272 11.3494 7.53657 11.9289H6.52502Z" fill="#EBF5FF"/>
</svg>
