<svg width="18" height="18" viewBox="0 0 18 18" fill="none" xmlns="http://www.w3.org/2000/svg">
<path d="M7.13462 18L6.77309 15.1077C6.45386 15.0115 6.10867 14.8603 5.73752 14.6538C5.36637 14.4474 5.05066 14.2263 4.79039 13.9904L2.12309 15.125L0.25769 11.875L2.56347 10.1365C2.53398 9.95576 2.50962 9.76954 2.49039 9.57788C2.47116 9.38621 2.46154 9.19999 2.46154 9.01923C2.46154 8.85128 2.47116 8.67468 2.49039 8.48943C2.50962 8.30418 2.53398 8.09553 2.56347 7.86348L0.25769 6.125L2.12309 2.91345L4.77117 4.02885C5.06988 3.78013 5.39296 3.55577 5.74039 3.35577C6.08782 3.15577 6.42565 3.00128 6.75387 2.8923L7.13462 0H10.8654L11.2269 2.91153C11.6103 3.04614 11.9491 3.20063 12.2433 3.375C12.5375 3.54935 12.8404 3.7673 13.1519 4.02885L15.8769 2.91345L17.7423 6.125L15.3596 7.92115C15.4148 8.12757 15.4455 8.31699 15.4519 8.48943C15.4584 8.66186 15.4616 8.83205 15.4616 9C15.4616 9.15513 15.4552 9.31892 15.4423 9.49135C15.4295 9.66378 15.4 9.87243 15.3539 10.1173L17.6981 11.875L15.8327 15.125L13.1519 13.9712C12.8404 14.2327 12.5269 14.4571 12.2116 14.6442C11.8962 14.8314 11.568 14.9795 11.2269 15.0885L10.8654 18H7.13462ZM8.97309 11.5C9.67052 11.5 10.2615 11.2577 10.7462 10.7731C11.2308 10.2885 11.4731 9.69743 11.4731 9C11.4731 8.30257 11.2308 7.71154 10.7462 7.22692C10.2615 6.74231 9.67052 6.5 8.97309 6.5C8.27181 6.5 7.67982 6.74231 7.19712 7.22692C6.71443 7.71154 6.47309 8.30257 6.47309 9C6.47309 9.69743 6.71443 10.2885 7.19712 10.7731C7.67982 11.2577 8.27181 11.5 8.97309 11.5ZM8.97309 10.5C8.55642 10.5 8.20226 10.3542 7.91059 10.0625C7.61892 9.77083 7.47309 9.41667 7.47309 9C7.47309 8.58333 7.61892 8.22917 7.91059 7.9375C8.20226 7.64583 8.55642 7.5 8.97309 7.5C9.38976 7.5 9.74392 7.64583 10.0356 7.9375C10.3273 8.22917 10.4731 8.58333 10.4731 9C10.4731 9.41667 10.3273 9.77083 10.0356 10.0625C9.74392 10.3542 9.38976 10.5 8.97309 10.5ZM8.00002 17H9.95579L10.325 14.2923C10.8289 14.159 11.2824 13.976 11.6856 13.7433C12.0888 13.5106 12.4994 13.1917 12.9173 12.7865L15.4116 13.85L16.4058 12.15L14.2173 10.5058C14.3006 10.2212 14.3558 9.9593 14.3827 9.7202C14.4096 9.4811 14.4231 9.24103 14.4231 9C14.4231 8.74615 14.4096 8.50608 14.3827 8.2798C14.3558 8.05352 14.3006 7.80448 14.2173 7.5327L16.4442 5.85L15.45 4.15L12.8981 5.21923C12.5955 4.88718 12.1978 4.57596 11.7048 4.28558C11.2119 3.99519 10.7455 3.80257 10.3058 3.7077L10 1H8.00579L7.69424 3.68845C7.19039 3.79615 6.72725 3.96955 6.30481 4.20865C5.88238 4.44775 5.46219 4.77628 5.04424 5.19423L2.55002 4.15L1.55579 5.85L3.72502 7.46922C3.64168 7.69359 3.58335 7.93718 3.55002 8.2C3.51668 8.46282 3.50002 8.73589 3.50002 9.01923C3.50002 9.27308 3.51668 9.525 3.55002 9.775C3.58335 10.025 3.63527 10.2686 3.70579 10.5058L1.55579 12.15L2.55002 13.85L5.02502 12.8C5.41732 13.1961 5.82469 13.5138 6.24714 13.7529C6.66957 13.992 7.14553 14.1782 7.67502 14.3115L8.00002 17Z" fill="#EBF5FF"/>
</svg>
