<svg width="16" height="16" viewBox="0 0 16 16" fill="none" xmlns="http://www.w3.org/2000/svg">
<path d="M10.0769 15.4943V14.4442C11.4615 13.9596 12.5769 13.1263 13.4231 11.9442C14.2692 10.7622 14.6923 9.4391 14.6923 7.975C14.6923 6.5109 14.2692 5.18782 13.4231 4.00577C12.5769 2.82372 11.4615 1.99039 10.0769 1.50577V0.45575C11.7333 0.986533 13.0833 1.93942 14.1269 3.31442C15.1705 4.68942 15.6923 6.24295 15.6923 7.975C15.6923 9.70705 15.1705 11.2606 14.1269 12.6356C13.0833 14.0106 11.7333 14.9635 10.0769 15.4943ZM0.307678 10V6H3.73078L7.3077 2.42305V13.577L3.73078 10H0.307678ZM10.0769 11.3077V4.6423C10.6423 5.00897 11.0721 5.49166 11.3664 6.09037C11.6606 6.68909 11.8077 7.32563 11.8077 8C11.8077 8.67052 11.6574 9.29776 11.3567 9.88172C11.0561 10.4657 10.6295 10.941 10.0769 11.3077ZM6.3077 4.85L4.1577 7H1.3077V9H4.1577L6.3077 11.15V4.85Z" fill="#EBF5FF"/>
</svg>
